# WaveFront *.obj file (generated by Autodesk ATF)

mtllib fca42987-0ea7-42f0-a38c-a6282b22b6bd.mtl

g Body5

v 90.643992 -52.333333 0.000000
v -90.643992 -52.333333 0.000000
v -0.000000 104.666667 0.000000
v 0.000000 -0.000000 148.021038
vt -9.064399 -5.233333 0.000000
vt 9.064399 -5.233333 0.000000
vt 0.000000 10.466667 0.000000
vt -0.000000 -0.000000 0.000000
vt 0.000000 18.128798 0.000000
vt -15.700002 9.064399 0.000000
vt 0.000000 0.000000 0.000000
vt -3.426021 17.802127 0.000000
vt -17.130106 5.934042 0.000000
vt 0.000000 0.000000 0.000000
vt -3.426021 -17.802127 0.000000
vt 13.704086 -11.868085 0.000000
vn 0.000000 0.000000 -0.100000
vn 0.000000 0.000000 -0.100000
vn 0.000000 0.000000 -0.100000
vn -0.000000 -0.094281 0.033333
vn -0.000000 -0.094281 0.033333
vn -0.000000 -0.094281 0.033333
vn 0.081650 0.047140 0.033333
vn 0.081650 0.047140 0.033333
vn 0.081650 0.047140 0.033333
vn -0.081650 0.047140 0.033333
vn -0.081650 0.047140 0.033333
vn -0.081650 0.047140 0.033333
usemtl Powder_Coat_(Green)
f 1/1/1 2/2/2 3/3/3
f 2/4/4 1/5/5 4/6/6
f 1/7/7 3/8/8 4/9/9
f 3/10/10 2/11/11 4/12/12
# 4 vertices
# 12 texture params
# 12 normals
# 4 facets

# 1 groups
